<svg xmlns="http://www.w3.org/2000/svg" xmlns:xlink="http://www.w3.org/1999/xlink" viewBox="0 0 90.72 90.75"><defs><style>.cls-1{fill:#342a2b;}.cls-2{clip-path:url(#clip-path);}</style><clipPath id="clip-path"><path class="cls-1" d="M84.2,37.65l-3.15.91-3.57-.9-3.57.09-3.57.33-3.57-.2-3.57,0-3.56.25-3.57.44-3.56.21L49,37.87l-3.57.18-3.57.19-3.57.57-3.57-1.46-3.57.43-3.57.81L24,38.08l-3.57.56H16.83l-3.57,0-3.58.21-3.85-.46.08-3.78.41-3.51.23-3L9.68,27l3.57.44,3.57.21,3.57.66,3.57-1.4,3.57.57,3.56.16,3.57-.25,3.56.27,3.57.49,3.57-.6,3.57-.73,3.57,1.39L56,27.77l3.57.52,3.57,0,3.57-.4,3.57.25,3.57-.74,3.57-.54L81,27l3.2,1,.13,3.11.9,3.55ZM45.36,7l-3,2.69-3.68.86-3.23,1.75-3.12,2-3.36,1.48-3.26,1.68-3.15,1.88-3.07,2.05-3.17,1.85-3.7.82L9.38,25.87,6.27,27.53l3.4-.71,3.57,1.46,3.57-.43L20.38,27l3.57.52L27.51,27h3.56l3.57,0,3.56-.21,3.57.35,3.57.2,3.57.41,3.57.42L56,27l3.57.44,3.57.21,3.57.66,3.57-1.4,3.57.57,3.57.16L81,27.34l3.63.23L81.6,25.42l-3.54-1.13-3.6-1-2.64-2.9-3.46-1.3-3-2.12-3.24-1.7-3.45-1.31-3.16-1.88-3.61-1L48.31,9.84Zm-27,30.64-3.73.9-3.3-.9-3.53.19L8,41.48l-.2,3.41,0,3.41.25,3.41.44,3.41.21,3.41L7.8,61.94,8,65.36l.14,3.3L11.3,68l3.3,1.46L18.12,69l-.73-3.61L17.9,62l-.56-3.41V55.14l0-3.41-.21-3.41.35-3.41.2-3.43ZM34,37.6l-4.86,1-4.74-.82-.07,3.74.33,3.41-.2,3.41,0,3.41.25,3.41.44,3.41.21,3.41-.94,3.42.19,3.44,4.51-.18,4.05-.42,1.17-2.82L34,62l-.81-3.41.52-3.41-.56-3.41V48.32l0-3.41-.21-3.45Zm14.75,0-3.93.91L41,37.78l0,3.7.33,3.41-.2,3.41,0,3.41.25,3.41.44,3.41.21,3.41-.94,3.42.19,3.43,3.53-.18,3-.37,1.23-2.88L48.64,62l-.81-3.41.52-3.41-.56-3.41V48.32l0-3.41-.21-3.46ZM85,64.6l-4,.9-3.57-.89-3.57.09L70.35,65l-3.57-.2-3.57,0-3.56.25-3.57.43-3.56.21L49,64.81,45.39,65l-3.57.19-3.57.57-3.57-1.44-3.57.42-3.57.8L24,65l-3.57.56H16.83l-3.57,0-3.58.21-3.31-.46-.08,3.23L5.89,72l-.23,4,4-1.05,3.57.44,3.57.2,3.57.65,3.57-1.39,3.57.57,3.56.16,3.57-.25,3.56.27,3.57.48,3.57-.59,3.57-.72,3.57,1.38,3.57-.4,3.57.51,3.57,0,3.57-.39,3.57.25,3.57-.73,3.57-.53L81,75l4,1L84.87,72,84,68.49ZM83.24,37.69l-3.74.87-3.3-.89-3.54.2.25,4-.2,3.75,0,3.75L73,53.09l.43,3.75.21,3.75-.93,3.76.19,3.78,3.31-.18,3.3-.57,3.84,1.2-.24-4.22-.8-3.75.51-3.75-.56-3.75V49.35l0-3.75-.21-3.8Zm-17.3-.08-4.86.95-4.75-.8-.06,3.84.32,3.52-.2,3.52,0,3.52.25,3.52.43,3.52.21,3.52-.93,3.53.19,3.55,4.51-.18,4-.41,1.16-2.95-.42-3.52-.8-3.52.51-3.52L65,52.17V48.65l0-3.52-.21-3.56Z"/></clipPath></defs><title>Eszköz 40</title><g id="Réteg_2" data-name="Réteg 2"><g id="Réteg_1" data-name="Réteg 1"><path class="cls-1" d="M84.2,37.65l-3.15.91-3.57-.9-3.57.09-3.57.33-3.57-.2-3.57,0-3.56.25-3.57.44-3.56.21L49,37.87l-3.57.18-3.57.19-3.57.57-3.57-1.46-3.57.43-3.57.81L24,38.08l-3.57.56H16.83l-3.57,0-3.58.21-3.85-.46.08-3.78.41-3.51.23-3L9.68,27l3.57.44,3.57.21,3.57.66,3.57-1.4,3.57.57,3.56.16,3.57-.25,3.56.27,3.57.49,3.57-.6,3.57-.73,3.57,1.39L56,27.77l3.57.52,3.57,0,3.57-.4,3.57.25,3.57-.74,3.57-.54L81,27l3.2,1,.13,3.11.9,3.55ZM45.36,7l-3,2.69-3.68.86-3.23,1.75-3.12,2-3.36,1.48-3.26,1.68-3.15,1.88-3.07,2.05-3.17,1.85-3.7.82L9.38,25.87,6.27,27.53l3.4-.71,3.57,1.46,3.57-.43L20.38,27l3.57.52L27.51,27h3.56l3.57,0,3.56-.21,3.57.35,3.57.2,3.57.41,3.57.42L56,27l3.57.44,3.57.21,3.57.66,3.57-1.4,3.57.57,3.57.16L81,27.34l3.63.23L81.6,25.42l-3.54-1.13-3.6-1-2.64-2.9-3.46-1.3-3-2.12-3.24-1.7-3.45-1.31-3.16-1.88-3.61-1L48.31,9.84Zm-27,30.64-3.73.9-3.3-.9-3.53.19L8,41.48l-.2,3.41,0,3.41.25,3.41.44,3.41.21,3.41L7.8,61.94,8,65.36l.14,3.3L11.3,68l3.3,1.46L18.12,69l-.73-3.61L17.9,62l-.56-3.41V55.14l0-3.41-.21-3.41.35-3.41.2-3.43ZM34,37.6l-4.86,1-4.74-.82-.07,3.74.33,3.41-.2,3.41,0,3.41.25,3.41.44,3.41.21,3.41-.94,3.42.19,3.44,4.51-.18,4.05-.42,1.17-2.82L34,62l-.81-3.41.52-3.41-.56-3.41V48.32l0-3.41-.21-3.45Zm14.75,0-3.93.91L41,37.78l0,3.7.33,3.41-.2,3.41,0,3.41.25,3.41.44,3.41.21,3.41-.94,3.42.19,3.43,3.53-.18,3-.37,1.23-2.88L48.64,62l-.81-3.41.52-3.41-.56-3.41V48.32l0-3.41-.21-3.46ZM85,64.6l-4,.9-3.57-.89-3.57.09L70.35,65l-3.57-.2-3.57,0-3.56.25-3.57.43-3.56.21L49,64.81,45.39,65l-3.57.19-3.57.57-3.57-1.44-3.57.42-3.57.8L24,65l-3.57.56H16.83l-3.57,0-3.58.21-3.31-.46-.08,3.23L5.89,72l-.23,4,4-1.05,3.57.44,3.57.2,3.57.65,3.57-1.39,3.57.57,3.56.16,3.57-.25,3.56.27,3.57.48,3.57-.59,3.57-.72,3.57,1.38,3.57-.4,3.57.51,3.57,0,3.57-.39,3.57.25,3.57-.73,3.57-.53L81,75l4,1L84.87,72,84,68.49ZM83.24,37.69l-3.74.87-3.3-.89-3.54.2.25,4-.2,3.75,0,3.75L73,53.09l.43,3.75.21,3.75-.93,3.76.19,3.78,3.31-.18,3.3-.57,3.84,1.2-.24-4.22-.8-3.75.51-3.75-.56-3.75V49.35l0-3.75-.21-3.8Zm-17.3-.08-4.86.95-4.75-.8-.06,3.84.32,3.52-.2,3.52,0,3.52.25,3.52.43,3.52.21,3.52-.93,3.53.19,3.55,4.51-.18,4-.41,1.16-2.95-.42-3.52-.8-3.52.51-3.52L65,52.17V48.65l0-3.52-.21-3.56Z"/><g class="cls-2"><polygon class="cls-1" points="77.7 90.63 74.11 89.25 70.52 89.13 66.93 90.26 63.34 90.05 59.75 89.28 56.16 89.5 52.57 90.36 48.98 89.27 45.39 89.48 41.79 90.04 38.2 90.17 34.61 90.59 31.01 90.56 27.42 89.64 23.83 90.74 20.23 89.56 16.63 90.75 13.03 89.53 9.01 90.07 5.94 87.47 3.38 84.71 2.26 81.2 1.75 77.7 0.43 74.11 0.52 70.52 1.02 66.93 0.7 63.34 0.7 59.75 0.57 56.16 0.23 52.57 0.47 48.98 0.74 45.39 1.44 41.8 1.73 38.2 1.41 34.61 0.68 31.01 1 27.42 1.23 23.83 0 20.23 1.18 16.63 1.26 13.03 1.17 9.18 3.72 6.27 5.89 3.21 9.24 1.37 13.03 1.73 16.62 1.47 20.21 1.71 23.8 0.65 27.39 0.69 30.98 0.62 34.57 1 38.16 1.69 41.75 0.15 45.34 0.25 48.94 0 52.53 0.88 56.12 0.98 59.72 1.58 63.31 0.23 66.9 0.15 70.5 0.59 74.1 0.41 77.7 1.46 81.65 0.86 85.06 2.9 87.49 5.92 88.81 9.42 89.44 13.03 89.07 16.62 90.13 20.22 89.39 23.8 89.78 27.39 90.43 30.98 90.36 34.57 89.45 38.16 89.88 41.76 90.36 45.34 89.79 48.94 89.27 52.53 89.16 56.13 90.42 59.72 90.49 63.31 90.72 66.91 90.12 70.5 90.66 74.1 89.87 77.7 89.39 81.5 86.87 84.36 84.95 87.68 81.21 88.5 77.7 90.63"/></g></g></g></svg>