<svg xmlns="http://www.w3.org/2000/svg" xmlns:xlink="http://www.w3.org/1999/xlink" viewBox="0 0 317.45 90.75"><defs><style>.cls-1{fill:#bfbc7c;}.cls-2{clip-path:url(#clip-path);}</style><clipPath id="clip-path"><path class="cls-1" d="M105.82,34.76l-3.54.59-3-.81-3.61,0-3.81.18-3.62-.22-3.82,0-4,.18L76.3,35l-4.13.2-3.8-.73L64,34.68l-4.42.26L55,35.56q-2-.56-4.18-1.11L46,35l-5,.93-4.81-.23-5.12.78-5.14.3-5.26.3-5.42.57H9.36q.15-1.85.27-3.69.38-1.73.72-3.45.2-1.49.36-3l4.9-1.23,5.54.22h5.41l5.31.45L37,25.56l5.09.41L47,26l4.84-.29,4.75.2,4.65.39,4.54-.51,4.43-.59,4.35,1.2,4.27-.29,4.15.49,4.07.12,4-.22,3.89.32,3.9-.47,3.81-.29,3.7.21,3.13.92a12.89,12.89,0,0,1-.6,2.46,13.55,13.55,0,0,1-.53,2.79C107.62,33.24,106.74,34,105.82,34.76ZM55.1,7.25a9.9,9.9,0,0,1-.8,2.58l-3.69.76q-1.26.81-2.7,1.61T45.11,14q-1.78.67-3.7,1.35t-3.76,1.56q-1.84.88-3.84,1.77t-4,2l-4.41,1.82-5.5.92-4.83,1.9-4.87,1.79,5.37-.9,5.57,1.18,5.4-.59,5.26-.91,5.2.34,5-.61,5-.08,4.85,0,4.73-.22,4.66.29,4.55.17,4.45.37,4.34.39,4.28-1,4.18.44,4.08.26,4,.64,4-1,3.82.59,3.75.27,3.73,0,3.66.35q-1.4-.94-3-1.89L103.32,24l-4-1q-1.66-1.27-3.62-2.57l-4.35-1.26q-2.17-1-4.52-2-2.34-.82-4.79-1.65l-4.94-1.31L71.9,12.34l-5.11-1-5.31-1.23Q58.38,8.67,55.1,7.25ZM28.29,35.73,22.72,36.9l-4.86-.53-5.44.55q.08,1.74.12,3.48-.29,1.66-.6,3.34-.14,1.66-.3,3.32,0,1.64,0,3.3t.18,3.28q-.08,1.67-.18,3.34-.84,1.77-1.64,3.56-.09,1.7-.19,3.41t-.23,3.33l3.73-1.13q1.77.5,3.44,1l4-1c0-1.23,0-2.43.06-3.63q.71-1.78,1.46-3.52.12-1.67.21-3.31l.87-3.33q.46-1.66.9-3.3.27-1.62.51-3.23.62-1.64,1.21-3.26t.92-3.23C27.33,38.13,27.82,36.93,28.29,35.73Zm21.6-1-6.66,1.1-6.32-.43q-.38,1.69-.86,3.39-.17,1.54-.43,3.09Q35,43.42,34.36,45q-.51,1.58-1.06,3.19t-.85,3.22q-.33,1.61-.68,3.25t-1,3.35q-1.13,1.77-2.2,3.58-.45,1.75-.87,3.55l4.77-.71,4.31-.87Q37.94,62,39.14,60.5c.33-1.16.68-2.29,1-3.41s.43-2.2.63-3.27q1-1.68,2.1-3.31c.3-1.06.58-2.1.84-3.13.48-1.05,1-2.09,1.41-3.12s.93-2.06,1.35-3.07.63-2,.89-3.05C48.26,37,49.1,35.83,49.89,34.69Zm18.33-.41-5,.85-4.41-.56c-.38,1.05-.81,2.11-1.29,3.17-.3,1-.63,2-1,2.93q-.87,1.49-1.81,3T53,46.74c-.49,1-1,2.06-1.49,3.11L50.2,53c-.53,1.08-1.05,2.19-1.56,3.31Q47.28,58.08,46,59.88c-.48,1.17-.94,2.37-1.37,3.59l3.5-.47,3-.61q1.27-1.58,2.62-3.1c.46-1.16,1-2.29,1.46-3.4s.76-2.18,1.15-3.25q1.25-1.64,2.53-3.21c.48-1,.94-2.05,1.39-3.06.65-1,1.29-2,1.9-3s1.24-2,1.82-2.94.95-2,1.36-2.93C66.38,36.41,67.33,35.34,68.22,34.28Zm18,23-3.9.92-2.44-.85-3.11.16-3.3.41-3-.1L67.22,58l-3.38.4L60.31,59l-3.45.42L54,58.72l-3.56.44-3.62.47-3.84.89q-1.48-.58-3-1.14l-3.92.8-4.1,1.22-3.7-.1-4.11,1-4,.49L16,63.31l-4.22.77-3.9.08q-.21,1.64-.41,3.28-.4,1.82-.76,3.64-.28,2-.53,4.11l4.4-1.63h3.72l3.68-.21,3.53.32,3.9-1.92,3.44.27,3.47-.15,3.54-.6,3.35,0,3.25.3L46,70.66l3.54-1.07q1.42.69,2.85,1.42l3.37-.67,3.07.45L62,70.7l3.27-.61,3.07.19,3.3-1,3.23-.72,3,0L81,69.69a27.53,27.53,0,0,1,1.07-4.55A28.41,28.41,0,0,1,83,61.28,47.56,47.56,0,0,1,86.2,57.3Zm18.68-22.55-4.11.54L98,34.5l-3.67.06c-.59,1-1.27,2.07-2,3.11s-1.75,2-2.69,3-1.77,2-2.69,3.05l-2.61,3.15c-.82,1.07-1.65,2.16-2.47,3.27s-1.75,2.26-2.59,3.43c-1.17,1.18-2.3,2.4-3.38,3.65-.76,1.25-1.46,2.54-2.1,3.87l2.93-.26,3.11-.65,2.54,1.21a37.86,37.86,0,0,1,2.34-4.31c.61-1.23,1.28-2.42,2-3.58,1.07-1.16,2.19-2.29,3.33-3.38.84-1.1,1.7-2.17,2.55-3.22,1-1,2-2.07,3-3.08s2-2,3-3,1.76-2,2.55-3C102.48,36.82,103.73,35.78,104.89,34.75ZM87.5,34.24,81.84,35l-4.91-.65c-.54,1-1.15,2.09-1.81,3.14-.47,1-1,1.93-1.54,2.91-.74,1-1.52,2-2.32,3s-1.46,2-2.21,3S67.69,48.43,67,49.5s-1.26,2.14-1.88,3.24-1.37,2.24-2,3.39q-1.51,1.77-2.92,3.62C59.59,61,59,62.23,58.53,63.51l4.16-.42,3.8-.62q1.26-1.62,2.64-3.15c.56-1.21,1.17-2.38,1.81-3.52s1.08-2.25,1.65-3.34c1-1.1,2-2.17,3-3.22.67-1,1.34-2.07,2-3.08l2.46-3c.82-1,1.61-1.95,2.38-2.91s1.33-1.93,1.93-2.88C85.43,36.33,86.5,35.28,87.5,34.24Z"/></clipPath></defs><title>Eszköz 60</title><g id="Réteg_2" data-name="Réteg 2"><g id="Réteg_1" data-name="Réteg 1"><path class="cls-1" d="M105.82,34.76l-3.54.59-3-.81-3.61,0-3.81.18-3.62-.22-3.82,0-4,.18L76.3,35l-4.13.2-3.8-.73L64,34.68l-4.42.26L55,35.56q-2-.56-4.18-1.11L46,35l-5,.93-4.81-.23-5.12.78-5.14.3-5.26.3-5.42.57H9.36q.15-1.85.27-3.69.38-1.73.72-3.45.2-1.49.36-3l4.9-1.23,5.54.22h5.41l5.31.45L37,25.56l5.09.41L47,26l4.84-.29,4.75.2,4.65.39,4.54-.51,4.43-.59,4.35,1.2,4.27-.29,4.15.49,4.07.12,4-.22,3.89.32,3.9-.47,3.81-.29,3.7.21,3.13.92a12.89,12.89,0,0,1-.6,2.46,13.55,13.55,0,0,1-.53,2.79C107.62,33.24,106.74,34,105.82,34.76ZM55.1,7.25a9.9,9.9,0,0,1-.8,2.58l-3.69.76q-1.26.81-2.7,1.61T45.11,14q-1.78.67-3.7,1.35t-3.76,1.56q-1.84.88-3.84,1.77t-4,2l-4.41,1.82-5.5.92-4.83,1.9-4.87,1.79,5.37-.9,5.57,1.18,5.4-.59,5.26-.91,5.2.34,5-.61,5-.08,4.85,0,4.73-.22,4.66.29,4.55.17,4.45.37,4.34.39,4.28-1,4.18.44,4.08.26,4,.64,4-1,3.82.59,3.75.27,3.73,0,3.66.35q-1.4-.94-3-1.89L103.32,24l-4-1q-1.66-1.27-3.62-2.57l-4.35-1.26q-2.17-1-4.52-2-2.34-.82-4.79-1.65l-4.94-1.31L71.9,12.34l-5.11-1-5.31-1.23Q58.38,8.67,55.1,7.25ZM28.29,35.73,22.72,36.9l-4.86-.53-5.44.55q.08,1.74.12,3.48-.29,1.66-.6,3.34-.14,1.66-.3,3.32,0,1.64,0,3.3t.18,3.28q-.08,1.67-.18,3.34-.84,1.77-1.64,3.56-.09,1.7-.19,3.41t-.23,3.33l3.73-1.13q1.77.5,3.44,1l4-1c0-1.23,0-2.43.06-3.63q.71-1.78,1.46-3.52.12-1.67.21-3.31l.87-3.33q.46-1.66.9-3.3.27-1.62.51-3.23.62-1.64,1.21-3.26t.92-3.23C27.33,38.13,27.82,36.93,28.29,35.73Zm21.6-1-6.66,1.1-6.32-.43q-.38,1.69-.86,3.39-.17,1.54-.43,3.09Q35,43.42,34.36,45q-.51,1.58-1.06,3.19t-.85,3.22q-.33,1.61-.68,3.25t-1,3.35q-1.13,1.77-2.2,3.58-.45,1.75-.87,3.55l4.77-.71,4.31-.87Q37.94,62,39.14,60.5c.33-1.16.68-2.29,1-3.41s.43-2.2.63-3.27q1-1.68,2.1-3.31c.3-1.06.58-2.1.84-3.13.48-1.05,1-2.09,1.41-3.12s.93-2.06,1.35-3.07.63-2,.89-3.05C48.26,37,49.1,35.83,49.89,34.69Zm18.33-.41-5,.85-4.41-.56c-.38,1.05-.81,2.11-1.29,3.17-.3,1-.63,2-1,2.93q-.87,1.49-1.81,3T53,46.74c-.49,1-1,2.06-1.49,3.11L50.2,53c-.53,1.08-1.05,2.19-1.56,3.31Q47.28,58.08,46,59.88c-.48,1.17-.94,2.37-1.37,3.59l3.5-.47,3-.61q1.27-1.58,2.62-3.1c.46-1.16,1-2.29,1.46-3.4s.76-2.18,1.15-3.25q1.25-1.64,2.53-3.21c.48-1,.94-2.05,1.39-3.06.65-1,1.29-2,1.9-3s1.24-2,1.82-2.94.95-2,1.36-2.93C66.38,36.41,67.33,35.34,68.22,34.28Zm18,23-3.9.92-2.44-.85-3.11.16-3.3.41-3-.1L67.22,58l-3.38.4L60.31,59l-3.45.42L54,58.72l-3.56.44-3.62.47-3.84.89q-1.48-.58-3-1.14l-3.92.8-4.1,1.22-3.7-.1-4.11,1-4,.49L16,63.31l-4.22.77-3.9.08q-.21,1.64-.41,3.28-.4,1.82-.76,3.64-.28,2-.53,4.11l4.4-1.63h3.72l3.68-.21,3.53.32,3.9-1.92,3.44.27,3.47-.15,3.54-.6,3.35,0,3.25.3L46,70.66l3.54-1.07q1.42.69,2.85,1.42l3.37-.67,3.07.45L62,70.7l3.27-.61,3.07.19,3.3-1,3.23-.72,3,0L81,69.69a27.53,27.53,0,0,1,1.07-4.55A28.41,28.41,0,0,1,83,61.28,47.56,47.56,0,0,1,86.2,57.3Zm18.68-22.55-4.11.54L98,34.5l-3.67.06c-.59,1-1.27,2.07-2,3.11s-1.75,2-2.69,3-1.77,2-2.69,3.05l-2.61,3.15c-.82,1.07-1.65,2.16-2.47,3.27s-1.75,2.26-2.59,3.43c-1.17,1.18-2.3,2.4-3.38,3.65-.76,1.25-1.46,2.54-2.1,3.87l2.93-.26,3.11-.65,2.54,1.21a37.86,37.86,0,0,1,2.34-4.31c.61-1.23,1.28-2.42,2-3.58,1.07-1.16,2.19-2.29,3.33-3.38.84-1.1,1.7-2.17,2.55-3.22,1-1,2-2.07,3-3.08s2-2,3-3,1.76-2,2.55-3C102.48,36.82,103.73,35.78,104.89,34.75ZM87.5,34.24,81.84,35l-4.91-.65c-.54,1-1.15,2.09-1.81,3.14-.47,1-1,1.93-1.54,2.91-.74,1-1.52,2-2.32,3s-1.46,2-2.21,3S67.69,48.43,67,49.5s-1.26,2.14-1.88,3.24-1.37,2.24-2,3.39q-1.51,1.77-2.92,3.62C59.59,61,59,62.23,58.53,63.51l4.16-.42,3.8-.62q1.26-1.62,2.64-3.15c.56-1.21,1.17-2.38,1.81-3.52s1.08-2.25,1.65-3.34c1-1.1,2-2.17,3-3.22.67-1,1.34-2.07,2-3.08l2.46-3c.82-1,1.61-1.95,2.38-2.91s1.33-1.93,1.93-2.88C85.43,36.33,86.5,35.28,87.5,34.24Z"/><g class="cls-2"><path class="cls-1" d="M77.61,90.56l-4.41-2.2-3.58-.18-3,1.79L63,89.66l-3.85-1.17-3.45.36-3.26,1.31-3.87-1.61-3.49.35-3.44.82-3.55.21-3.51.59-3.59,0-3.67-1.21q-1.74.74-3.49,1.46Q22,90,20.18,89.27q-1.77.76-3.54,1.49Q14.81,90,13,89.32L9,90C8,89,7,88.11,6,87.22c-.84-.95-1.68-1.86-2.52-2.75-.36-1.19-.71-2.35-1.08-3.51q-.23-1.76-.46-3.5Q1.21,75.74.48,74q.06-1.81.13-3.61.31-1.84.64-3.68Q1.08,65,.9,63.21q0-1.79,0-3.59T.8,56.05Q.58,54.29.34,52.53q.18-1.82.37-3.63t.44-3.63q.56-1.85,1.15-3.68.26-1.81.52-3.61-.24-1.76-.49-3.53-.59-1.74-1.21-3.5.27-1.81.53-3.61T2,23.75c-.68-1.17-1.36-2.34-2-3.52C.63,19,1.25,17.8,1.83,16.59q0-1.79,0-3.59T1.59,9.17c1.12-1,2.16-1.95,3.1-2.91a27.24,27.24,0,0,0,2-3q1.68-.91,3.09-1.83l4.2.36,3.66-.25,4,.24Q23.13,1.2,24.45.67l3.72,0L31.74.64,35.9,1l4.63.73A12.44,12.44,0,0,0,42,.16l3.76.11L48.94,0l5.15,1,3.84.12,4.75.68A11,11,0,0,0,63.76.26L67.21.17l4.51.51L75,.49l5.8,1.24L83.53,1q3.9,1.23,7.6,2.45Q95.28,5.26,99,7q3.5,2,6.37,3.8a57.08,57.08,0,0,1,4.55,3.67,21.29,21.29,0,0,1,2.33,3.39,26.43,26.43,0,0,1,2.73,3.27,10.4,10.4,0,0,1,0,3,11.13,11.13,0,0,1,.25,3,11.6,11.6,0,0,1-.26,2.86,19.48,19.48,0,0,1-1.59,2.76c-.88.9-1.84,1.79-2.87,2.68-.62.91-1.31,1.83-2,2.74s-1.51,1.84-2.33,2.76l-3.45,2.79c-1.15.94-2.32,1.9-3.47,2.88s-2.09,2-3.11,3c-.64,1-1.26,2.09-1.85,3.18-.91,1.08-1.79,2.19-2.61,3.34a37.42,37.42,0,0,0-2.14,3.55,35.33,35.33,0,0,0-2.35,3.79,25.52,25.52,0,0,0-.86,4.07,27.65,27.65,0,0,0-1.3,4.38,27.18,27.18,0,0,0-.26,5,38.32,38.32,0,0,0-1.55,4,35.45,35.45,0,0,0-.28,5l-3.12,1.29Q78.61,88.82,77.61,90.56Z"/></g><path class="cls-1" d="M90.75,60.84a2.24,2.24,0,0,1,.77-.87,4.12,4.12,0,0,1,1-.46,9.68,9.68,0,0,1,1-.26,3.25,3.25,0,0,0,.85-.3l.3-.19.44-.29.46-.28.33-.18,1.58-.66a5.1,5.1,0,0,0,1-.63l1.5-1.16,1.58-1.22,1.15-.87a1.9,1.9,0,0,0,.32-.28l.35-.36.34-.27.27-.22.39-.24.63-.38.62-.38.36-.23.23-.19.39-.35.41-.36.25-.22q.95-.78,2.05-1.54t2.22-1.5l2.19-1.47q1.08-.74,2.05-1.5c2.21-1.39,4.41-2.74,6.52-4.08a20,20,0,0,0,2.42-1.8q1.09-1,2.3-1.87t2.55-1.59A26.88,26.88,0,0,0,132,33a6.42,6.42,0,0,0,.94-1,4.5,4.5,0,0,1,1-1c.14-.1.47-.29,1-.57l1.54-.86c.53-.29,1-.55,1.49-.78a2.4,2.4,0,0,1,.95-.31c.32,0,.51.15.54.38a.78.78,0,0,1,.15.33.65.65,0,0,1,0,.27,5.56,5.56,0,0,0,0,.86,3.12,3.12,0,0,1-.12.93l-.33.5a2.14,2.14,0,0,0-.29.68c-.06.24-.11.44-.16.59a11.46,11.46,0,0,1-.76,1.54,11.82,11.82,0,0,1-1,1.47,4.06,4.06,0,0,0-.5.82,2.59,2.59,0,0,1-.65.83l-.4.34a1.51,1.51,0,0,1-.08.68,2.68,2.68,0,0,1-.32.6q-.21.3-.48.64a8.79,8.79,0,0,0-.58.84,6.84,6.84,0,0,1-.66.83c-.24.26-.49.52-.77.78l-.87.83a12.39,12.39,0,0,0-.9,1,3.82,3.82,0,0,0-.33.38,2.32,2.32,0,0,1-.32.36l-1.06.83a1,1,0,0,0-.16.21l-.23.36-.26.38a1.4,1.4,0,0,1-.22.25L128,47l-.25.22-.26.24c-.08.08-.11.11-.09.12l-.16.68a.59.59,0,0,1-.18.33l-.41.4-.47.44a2.07,2.07,0,0,0-.36.44q-.48.67-1,1.38a9.29,9.29,0,0,0-.93,1.44c-.21.35-.45.72-.73,1.11a13.79,13.79,0,0,1-.89,1.14l-.26.3a3.62,3.62,0,0,0-.22,1.09,5.11,5.11,0,0,1-.11.95,3.1,3.1,0,0,0-.22,1,1.76,1.76,0,0,0,.07.59,1,1,0,0,0,.21.37l.25.28a1.86,1.86,0,0,0,.73.59,9.66,9.66,0,0,0,1.16.42l.53.23a.76.76,0,0,1,.06.68c-.08.29-.16.54-.24.75a1.55,1.55,0,0,1-.69.86,1.6,1.6,0,0,1-.85.23L120.75,63l-.48,0a.56.56,0,0,0-.24-.21,1.51,1.51,0,0,0-.36-.12l-.36,0a.41.41,0,0,1-.21,0l-2.71-.14c0-.22-.1-.35-.18-.38a1.35,1.35,0,0,0-.4-.06,7.56,7.56,0,0,0-2.07.21,8.49,8.49,0,0,1-2.28.22l-.5,0q-.37,0-.69-.06a.69.69,0,0,1-.48-.26c-.05-.06,0-.23.11-.51l.27-.47a1.56,1.56,0,0,0,.17-.26l.09-.17a.47.47,0,0,1,.27-.25,5,5,0,0,1,1.11-.3q.58-.09,1.13-.21a4.26,4.26,0,0,0,1-.35,1.92,1.92,0,0,0,.77-.73l0-.06c.25-.42.54-.9.87-1.43a17.43,17.43,0,0,1,1.12-1.55,1.73,1.73,0,0,0,.3-.55,1.71,1.71,0,0,1,.27-.52c.45-.52.92-1,1.4-1.53.18-.22.42-.56.73-1s.6-.94.85-1.4a7.24,7.24,0,0,0,.55-1.22c.11-.35,0-.54-.23-.56a5.08,5.08,0,0,0-1.48.17,5.25,5.25,0,0,1-1.53.17,1.1,1.1,0,0,1-.77-.29,1.3,1.3,0,0,0-.88-.3l-1.45-.09a9.05,9.05,0,0,0-1,0,4.7,4.7,0,0,0-1.25.27,17.5,17.5,0,0,0-2.55,1.1,16,16,0,0,0-2.75,1.83q-.93.88-1.81,1.78l-.27.26-.47.44-.46.43-.25.25-.15.16-.19.21a1.77,1.77,0,0,0-.41.71,6.25,6.25,0,0,1-.14.67c0,.17-.1.39-.16.68a3.34,3.34,0,0,0-.09.74.94.94,0,0,0,.52.57q.41.22.8.46a1.55,1.55,0,0,1,.57.61,1.1,1.1,0,0,1-.14,1l-.1.21a3.86,3.86,0,0,1-1.37,1.53,3.25,3.25,0,0,1-1.59.35l-1.72-.75-.84,0q-.42,0-.88,0c-.31,0-.6,0-.89.08a5.34,5.34,0,0,0-.8.16,2.12,2.12,0,0,0-.6.26q-.59,0-1.18,0l-1.07.05-.78,0h-.35a1.77,1.77,0,0,1-.63-.13,1.49,1.49,0,0,1-.56-.38,1.19,1.19,0,0,1-.3-.58A1.12,1.12,0,0,1,90.75,60.84Zm27.72-17-.62.48-.54.44c-.5.42-.73.71-.7.87s.25.25.66.27a.38.38,0,0,0,.17,0l.13-.07.36,0,.46,0a1.7,1.7,0,0,1,.32.09.79.79,0,0,0,.25.07l3.54.25a4.68,4.68,0,0,0,3.22-1.26,2.85,2.85,0,0,0,.49-.52q.24-.32.49-.7t.54-.78a7.11,7.11,0,0,1,.66-.78.51.51,0,0,0,.21-.27q.4-.8.75-1.6A.61.61,0,0,0,129,40a1.16,1.16,0,0,1,.13-.23l.41-.46c.27-.31.59-.68,1-1.12a10.52,10.52,0,0,0,.92-1.26,3.65,3.65,0,0,0,.46-1c.07-.29,0-.45-.27-.47a3,3,0,0,0-1.1.52c-.59.36-1.31.82-2.18,1.37l-2.88,1.85-3,2-2.55,1.68C119.16,43.36,118.68,43.7,118.47,43.87Z"/><path class="cls-1" d="M134.46,50.27a2.32,2.32,0,0,1,.45-.31,3.4,3.4,0,0,0,.56-.4c.18-.15.27-.26.27-.32s0-.17,0-.3q.46-.43,1-.82,1-.81,2.08-1.61l.55-.41.59-.4a5.06,5.06,0,0,0,.56-.27l.29-.2,1-1,2-1.22a3.28,3.28,0,0,0,.53-.49,3,3,0,0,1,.47-.44,2.39,2.39,0,0,1,.48-.29l.55-.23.57-.23a3.42,3.42,0,0,0,.54-.28l1.06-.66a30.52,30.52,0,0,1,3.44-1.9q1.73-.81,3.6-1.56a6.62,6.62,0,0,1,1.35-.9q.84-.44,1.82-.86c.66-.28,1.34-.55,2.06-.81s1.41-.5,2.07-.72l1.84-.59,1.38-.41a8.73,8.73,0,0,1,1.28-.22,7.87,7.87,0,0,0,1.37-.27c.16,0,.45,0,.86,0l1.35-.06,1.37-.06.93,0,.54.1.51.07,2.16.19.59.05a2.51,2.51,0,0,1,.53.1,2.49,2.49,0,0,0,.49.45,5.47,5.47,0,0,0,.76.47,8.52,8.52,0,0,0,.85.39,2.78,2.78,0,0,0,.76.2,1.71,1.71,0,0,0,.9-.17,7.32,7.32,0,0,0,.87-.49c.29-.19.55-.36.81-.5a1.32,1.32,0,0,1,.78-.19.41.41,0,0,1,.37.21.68.68,0,0,1,0,.44,2.05,2.05,0,0,1-.21.53,3.13,3.13,0,0,1-.3.46,31.61,31.61,0,0,1-2.17,2.56c-.06.13-.13.25-.2.35a1.53,1.53,0,0,1-.22.27A3.75,3.75,0,0,0,180,38c-.11.11-.26.27-.45.48l-.56.63-.5.55-.25.26a8.22,8.22,0,0,0-.59.62l-.4.49q-.19.24-.42.49a5.66,5.66,0,0,1-.67.6,1.36,1.36,0,0,1-.29.15l-.44.16-.43.13a1,1,0,0,1-.26,0c-.34,0-.52-.18-.54-.44a1.93,1.93,0,0,1,.21-.93,10.48,10.48,0,0,1,.6-1.13q.35-.59.67-1.05l.16-.29.54-.6q0-.39,0-.78a2.22,2.22,0,0,1,0-.24,3.83,3.83,0,0,1,.1-.37c0-.14.08-.28.12-.41s.06-.24.08-.32a.64.64,0,0,0-.09-.64,1.7,1.7,0,0,0-.55-.4q-.34-.16-.72-.3a1.51,1.51,0,0,1-.59-.36,4.55,4.55,0,0,1-.28-.36,2,2,0,0,0-.25-.29,1.06,1.06,0,0,0-.35-.21,2.38,2.38,0,0,0-.62-.12,2.89,2.89,0,0,0-1.2.2,5.14,5.14,0,0,1-1.28.29l-1.66,0a10.83,10.83,0,0,0-2.52.54c-.91.3-1.84.66-2.82,1.08s-2,.88-3,1.36l-3,1.39a5.83,5.83,0,0,0-1,.61c-.33.25-.67.49-1,.73s-1,.6-1.65.9l-1.84.91q-.93.47-1.82.94a12.5,12.5,0,0,0-1.56,1l-.49.39-.83.66-1,.81-1.11.84-1,.72-.36.55-1.57,1.21q-1.4,1.18-2.55,2.32a9.27,9.27,0,0,0-1.75,2.3,2.59,2.59,0,0,0-.29.87c0,.25-.05.51-.08.76l-.06.8a5.28,5.28,0,0,1-.17.92.19.19,0,0,0,.16.28A.32.32,0,0,1,138,57a3.42,3.42,0,0,0,.75,2.9,7.47,7.47,0,0,0,2.53,1.77,2.21,2.21,0,0,1,.66.34,1.13,1.13,0,0,0,.64.23,1.68,1.68,0,0,0,.46,0l.31-.08h1.15l.72,0,.52,0,.39-.18.92-.46,1.2-.6,1.24-.6,1-.49.53-.26c.15-.25.31-.5.47-.75q.41-.72.89-1.41a9.93,9.93,0,0,1,.8-.9c.27-.27.51-.52.7-.73l.44-.48.19-.45q.55-.56,1.14-1.12a2.17,2.17,0,0,0,.48-.67,2.24,2.24,0,0,0,.12-.51,2.32,2.32,0,0,1,.09-.48,1.39,1.39,0,0,1,.39-.54l.81-.67.64-.61a2,2,0,0,1,.65-.27,5.14,5.14,0,0,1,.75-.11,5,5,0,0,1,.77,0l.68.06.71.08,1.24.43a7.56,7.56,0,0,0,1,0q.53,0,1-.06l.16,0,3.95.42a.62.62,0,0,1,.19.07.51.51,0,0,1,.19.16.32.32,0,0,1,0,.24.53.53,0,0,1-.21.29,3.49,3.49,0,0,1-1.27.66,9.43,9.43,0,0,1-1.47.31q-.74.09-1.4.14a4.68,4.68,0,0,0-1.05.18q-1.54.72-3,1.46l-.31.52a3.57,3.57,0,0,1-.49.62,32.08,32.08,0,0,0-2.46,2.5.9.9,0,0,0-.24.58.65.65,0,0,1-.13.44c-.24.36-.5.75-.78,1.17s-.58.81-.89,1.19a6.7,6.7,0,0,1-1,1,2.5,2.5,0,0,1-1.19.53l-1.31,0a2.83,2.83,0,0,0-.85.24,11.54,11.54,0,0,0-1,.51q-.54.29-1,.6a9,9,0,0,1-.81.47,1.33,1.33,0,0,1-.62.17h-.52l-.85-.06a6.39,6.39,0,0,0-.89,0,3,3,0,0,0-.93.24l-3.89-.28a7.81,7.81,0,0,0-2.11-.44l-1.06-.1-1.05-.13a.52.52,0,0,1-.37-.16,1.65,1.65,0,0,1-.21-.3l-.17-.32a.49.49,0,0,0-.22-.23.78.78,0,0,0-.27-.23,5.44,5.44,0,0,0-.48-.28l-.49-.23-.28-.1q-.56-.51-1.07-1a1,1,0,0,1-.38-.15,1,1,0,0,0-.43-.16c-.18-.07-.36-.31-.52-.7a7.93,7.93,0,0,1-.37-1.32,6.81,6.81,0,0,1-.12-1.42,8.49,8.49,0,0,1,.07-1,.88.88,0,0,0,.12-.4,1.44,1.44,0,0,0,0-.41l.34-.65a.39.39,0,0,0,0-.21,2.36,2.36,0,0,1-.07-.29,2.4,2.4,0,0,1,0-.29.26.26,0,0,1,.07-.2q.63-.77,1.32-1.53a2.49,2.49,0,0,0,.3-.48l.23-.49a4.62,4.62,0,0,1,.29-.5A2.65,2.65,0,0,1,134.46,50.27Z"/><path class="cls-1" d="M169.26,54a3.78,3.78,0,0,1,.75-.54,4.71,4.71,0,0,0,.81-.58c.7-.82,1.45-1.62,2.24-2.43q.77-.62,1.83-1.37c.71-.5,1.35-.94,1.93-1.32s1.18-.71,1.79-1.11,1.2-.8,1.78-1.2,1.12-.79,1.61-1.16l1.24-.95c.42-.19.8-.35,1.14-.48l1-.39a8.68,8.68,0,0,0,.93-.46,10.89,10.89,0,0,0,1-.69l2.7-1.2.87-.23a3.94,3.94,0,0,0,.66-.3q.46-.24,1-.57l1.06-.64a8.87,8.87,0,0,1,.86-.47l4.23-1.71q2-.8,4.14-1.59l.28-.07.25,0,.19,0a2.51,2.51,0,0,0,.73-.17l.64-.27c.21-.09.42-.17.63-.25a1.76,1.76,0,0,1,.66-.09l.94.27.49-.2,1-.26a18.24,18.24,0,0,1,2.11-.11l2,0a4.06,4.06,0,0,1,.94.2q.63.19,1.27.45a12.34,12.34,0,0,1,1.15.53,2.57,2.57,0,0,1,.63.41,2.64,2.64,0,0,1,.18,1.33,3.68,3.68,0,0,0,.07,1.3,1.54,1.54,0,0,0,.27.54l.35.42a4.42,4.42,0,0,1,.33.43,1.13,1.13,0,0,1,.17.57.32.32,0,0,1,.09.21,1.78,1.78,0,0,1,0,.35q0,.19,0,.36a1.88,1.88,0,0,0,0,.24l-.59.78a1.34,1.34,0,0,0-.31.56,2.85,2.85,0,0,0-.06.53c0,.18,0,.35,0,.51a1,1,0,0,1-.22.52,8.07,8.07,0,0,1-.32.74c-.15.3-.31.62-.49,1a11.36,11.36,0,0,1-.61,1,8.11,8.11,0,0,1-.65.83l-1.43,1.36c-.21.26-.35.47-.45.62a1.92,1.92,0,0,0-.22.49c-.1.17-.21.33-.32.49a4.87,4.87,0,0,1-.55.62l-.18.16-.29.25-.3.26-.21.19-.3.59-1,1a1.06,1.06,0,0,1-.19.27l-.32.36c-.43.48-.82.89-1.2,1.25a6.89,6.89,0,0,1-.79.69q-.87.7-1.68,1.28l-1.61,1.15q-.8.57-1.55,1.18a15.45,15.45,0,0,0-1.46,1.34,2.16,2.16,0,0,1-.42.19L200,61a2.2,2.2,0,0,0-.39.12,1.8,1.8,0,0,0-.41.23,3.77,3.77,0,0,0-.3.29l-.37.39-.4.41a2.43,2.43,0,0,1-.41.33l-.63.25a.79.79,0,0,0-.47.15q-.25.16-.28.3l-.66.54-.88.71-.85.68a7.68,7.68,0,0,1-.64.47L193,66l-.26.08a.53.53,0,0,1-.18,0l-3,.75a2.21,2.21,0,0,0-.24.3.44.44,0,0,1-.14.15l-.18.08-.34.07-1.79,0-1.78.67-.47,0h-.44l-.45,0a5.31,5.31,0,0,1-.73-.11l-.91-.2-.93-.23-.82-.22a6.43,6.43,0,0,0-1.14-.23L178,67.16c-.67,0-1.31-.11-1.92-.2a6.34,6.34,0,0,1-1.83-.55l-.4-.57a4.34,4.34,0,0,0-.67-.16q-.38-.07-.78-.17a4.65,4.65,0,0,1-.73-.26,1,1,0,0,1-.49-.42,7.58,7.58,0,0,1-.5-.81,5.92,5.92,0,0,0-.34-.58,2.4,2.4,0,0,0-.45-.49,5.39,5.39,0,0,0-.79-.53l-.7-.23a1.11,1.11,0,0,1-.36-.53,3.67,3.67,0,0,1-.21-.89,7.28,7.28,0,0,1,0-1.06,6.52,6.52,0,0,1,.12-1.08c.07-.34.14-.65.21-.92s.14-.47.18-.61a1.21,1.21,0,0,0,.13-.82c-.07-.18-.13-.34-.19-.5a.93.93,0,0,1,.05-.61A3.87,3.87,0,0,1,169.26,54Zm10.31-4.31a4.41,4.41,0,0,0-.81.8,5.21,5.21,0,0,0-.46.74c-.12.24-.25.48-.39.72a3.78,3.78,0,0,1-.62.77A1.08,1.08,0,0,1,177,53l-1.16,1a4.43,4.43,0,0,0-.4.44,1.13,1.13,0,0,0-.25.5.43.43,0,0,0,0,.37l.13.23a.64.64,0,0,1,.07.26.89.89,0,0,1-.18.44l-.17.22-.26.29c-.08.09-.2.22-.34.4a1.83,1.83,0,0,0-.37.64c-.06.17,0,.29.13.35a.36.36,0,0,1,.24.31,4.73,4.73,0,0,0-.2,1.54,2.24,2.24,0,0,0,.46,1.19A13.52,13.52,0,0,0,176,62.61a10.55,10.55,0,0,0,1.65,1.27,9.65,9.65,0,0,0,2,1,9.28,9.28,0,0,0,2.37.47,2.89,2.89,0,0,0,.58,0l.47-.09.47-.12.6-.11,1.72-.12a12.81,12.81,0,0,1,1.75,0,9.44,9.44,0,0,1,1.35-.64l1.52-.61a12.91,12.91,0,0,0,1.47-.73,6,6,0,0,0,1.27-1c.76-.78,1.6-1.54,2.51-2.3a3,3,0,0,0,.89-.55q.39-.35.75-.72t.75-.74a4.09,4.09,0,0,1,.9-.64c1-1,2-2,3.16-3a8.41,8.41,0,0,0,.57-.66,7.45,7.45,0,0,1,.68-.75l1-.71a5.27,5.27,0,0,0,.7-.86c.23-.34.44-.69.65-1l.6-1.06.47-.87.19-.4.84-.63a3.24,3.24,0,0,0,.56-.61,3.85,3.85,0,0,0,.28-.5l.2-.45a2,2,0,0,1,.37-.51l1.05-1.16a5.35,5.35,0,0,0,.81-1.6,8.6,8.6,0,0,0,.39-1.86,5.32,5.32,0,0,0-.08-1.66,1.3,1.3,0,0,0-.58-.94,1.91,1.91,0,0,0-.79-.19l-.93-.07q.08-.42.14-.85a2.29,2.29,0,0,0-.36-.25l-.59-.33a4.49,4.49,0,0,0-.67-.28,2.36,2.36,0,0,0-.58-.12,9.84,9.84,0,0,0-1.24,0q-.79.07-1.7.24a16.34,16.34,0,0,0-1.8.44,7.18,7.18,0,0,0-1.54.66l-.48.39a4.42,4.42,0,0,1-.59.21l-.54.18a4.06,4.06,0,0,0-.55.25,4.72,4.72,0,0,0-.66.46,6.49,6.49,0,0,0-1,.22,2.73,2.73,0,0,0-.54.25l-.5.31a5.84,5.84,0,0,1-.86.41,21.5,21.5,0,0,0-3.12,1.46q-1.61.9-3.2,2c-1.06.7-2.1,1.41-3.11,2.14s-1.92,1.4-2.71,2l-1.85,1.53a4.39,4.39,0,0,1-.76.44A4.78,4.78,0,0,0,179.57,49.71Z"/><path class="cls-1" d="M243.14,69a19.51,19.51,0,0,1-4.25-2.86,11.18,11.18,0,0,1-2.55-3.26c-.11-.29-.22-.58-.32-.87a2,2,0,0,0-.36-.49l-.49-.51-.48-.48a1,1,0,0,1-.29-.44q-.22-.43-.41-.86-.84-1-1.54-2a1.35,1.35,0,0,0-.14-1.33,4.41,4.41,0,0,0-1.14-1.17,6.31,6.31,0,0,0-1.6-.84,5,5,0,0,0-1.59-.32,6,6,0,0,0-.79.06,8,8,0,0,0-1,.21,6.11,6.11,0,0,0-1,.37,1.74,1.74,0,0,0-.7.52q-.21.44-.4.88a1.73,1.73,0,0,1-.41.46,1.2,1.2,0,0,0-.33.34,5.53,5.53,0,0,0-.33.59,2.56,2.56,0,0,0-.18.61,22.1,22.1,0,0,0-1.94,3.66q0,.24-.09.49c-.06.26-.11.52-.17.77s-.11.51-.16.77-.08.51-.11.74-.06.47-.09.72a.79.79,0,0,0,.24.51,1.44,1.44,0,0,0,.61.43l1.55.8a3.81,3.81,0,0,0,1.2.38c.48.08,1,.14,1.53.19l1.62.13a10.07,10.07,0,0,1,1.48.21,4.11,4.11,0,0,1,1.14.42,1.17,1.17,0,0,1,.58.74.68.68,0,0,1-.19.67,2.47,2.47,0,0,1-.72.51,4.17,4.17,0,0,1-1,.32,3.87,3.87,0,0,1-.91.1,5.62,5.62,0,0,1-1-.12l-1-.23-1-.26q-.51-.13-1.05-.22L221,69c-.79-.12-1.69-.3-2.69-.55a3.17,3.17,0,0,0-.72.06,3.87,3.87,0,0,1-.87.05l-2.26-.26a1,1,0,0,0-.66.23,1.11,1.11,0,0,1-.75.23l-5-.37a.93.93,0,0,1-.41-.51c-.08-.4.11-.69.55-.9a6.88,6.88,0,0,1,1.57-.48c.6-.12,1.19-.21,1.76-.28a3.34,3.34,0,0,0,1.16-.29,1.35,1.35,0,0,0,.34-.86,2,2,0,0,1,.19-.81,1,1,0,0,0,.34-.18.58.58,0,0,1,.25-.13,5.1,5.1,0,0,0,.58-1.2l.48-1.36q.17-.5.38-1a3,3,0,0,0,.25-.84,2,2,0,0,1,.25-.75A38.51,38.51,0,0,1,219,54.76c.41-.74.87-1.48,1.35-2.22l.32-.53.1-.11.23-.24.36-.37.37-.37.28-.24a2.73,2.73,0,0,0,.55-.18,1.16,1.16,0,0,0,.27-.23q.49-.72,1-1.45l1.53-1.27.32-.26a4.83,4.83,0,0,0,.38-.33l.46-.63.69-.73L228.85,44c1-1.25,2.05-2.54,3.06-3.86l.47-.55a4.53,4.53,0,0,0-.06-1.22,2,2,0,0,0-.41-.87,2.87,2.87,0,0,0-.77-.64,7,7,0,0,0-1.15-.52c-.19-.06-.18-.21,0-.47a2.31,2.31,0,0,1,1-.67,8.77,8.77,0,0,1,1.37-.45q.71-.17,1.34-.26a7.88,7.88,0,0,1,.85-.09l1.36.13,1.67-.17,1.84.5a6.23,6.23,0,0,0,1.49-.23,6.82,6.82,0,0,1,1.59-.24l2,.2,2.39-.34a10,10,0,0,1,2.39.17,19.27,19.27,0,0,1,2.11.57,4.53,4.53,0,0,0,1.14.29,1.54,1.54,0,0,1,1,.46l.32.42c.45.42.85.81,1.2,1.18a2.72,2.72,0,0,1,.7,1.25,3.39,3.39,0,0,1-.08,1.64,9.13,9.13,0,0,1-1.11,2.34,9.78,9.78,0,0,0-.64,1.24,7,7,0,0,1-.69,1.23,2.26,2.26,0,0,1-.37.44,3.22,3.22,0,0,1-.39.29l-.44.27a3.9,3.9,0,0,0-.51.37,4.45,4.45,0,0,0-.62.6l-.59.69q-.29.34-.6.66a3.36,3.36,0,0,1-.58.49,10.48,10.48,0,0,1-1.93,1,20.3,20.3,0,0,0-2,.91,4.69,4.69,0,0,1-1.28.61l-1.5.47a10,10,0,0,0-1.41.54,2.34,2.34,0,0,0-1,.84c-.11.18-.15.3-.11.38a.66.66,0,0,0,.15.21l.24.19a.47.47,0,0,1,.18.28,1.18,1.18,0,0,0,.08.36c.06.19.14.39.23.61s.18.41.26.59.14.28.18.3q.65,1.14,1.2,2.34A7.89,7.89,0,0,0,244,60.79q.65.63,1.34,1.26a5.82,5.82,0,0,0,1.7,1.05,1,1,0,0,1,.47.37,6,6,0,0,1,.38.6c.12.22.25.44.38.65a1.92,1.92,0,0,0,.46.52c.94.45,1.83.85,2.66,1.21s1.72.75,2.67,1.19a9.23,9.23,0,0,0,1.49.49c.56.14,1.11.29,1.64.46a6.5,6.5,0,0,1,1.4.63,1.67,1.67,0,0,1,.78.94c.11.36,0,.59-.44.69a5.64,5.64,0,0,1-1.4.15L252.06,71a9.24,9.24,0,0,0-2.37-.4q-1.1,0-2.51-.15a4.63,4.63,0,0,1-.8-.18q-.5-.15-1-.34c-.37-.13-.72-.27-1.07-.42l-.92-.38ZM227.61,50.34a2.34,2.34,0,0,0-.56.94.76.76,0,0,0,.12.67,1.36,1.36,0,0,0,.67.42,3.67,3.67,0,0,0,1.08.15H230a3.14,3.14,0,0,1,1.37-.64q1-.27,2.12-.47t2.18-.35a13.27,13.27,0,0,0,1.59-.29,11,11,0,0,0,1.71-.67q.94-.45,1.75-.9l2.17-1.57a20.74,20.74,0,0,0,1.76-1.36,10.07,10.07,0,0,0,1.44-1.53,1,1,0,0,0,.2-.39c0-.13.05-.25.07-.38a2.9,2.9,0,0,1,.1-.41,1.68,1.68,0,0,1,.28-.5l.85-.87.23-.26.2-.26c.05-.07,0-.17,0-.31a.35.35,0,0,1-.06-.31,3.87,3.87,0,0,0-.08-1.92,2.37,2.37,0,0,0-.94-1.22,4.29,4.29,0,0,0-1.68-.62,12.14,12.14,0,0,0-2.33-.13l-.49.07-.83.14-.82.16a2.66,2.66,0,0,0-.5.13l-.3.21-.42.32-.41.32-.26.2-.6.75a28,28,0,0,1-2.58,2.76q-1.41,1.32-3,2.66l-.82.49q0,.32,0,.64l-.37.5c-.19.25-.33.45-.42.59l-.3.34a.56.56,0,0,0-.21.1,1.1,1.1,0,0,0-.24.19,1.49,1.49,0,0,0-.15.24c-.07.13-.09.2-.07.22Z"/><path class="cls-1" d="M255.55,69.11a.61.61,0,0,1,.3-.74,3.47,3.47,0,0,1,1-.39c.41-.09.83-.17,1.27-.23a3.8,3.8,0,0,0,1-.27l.28-.17.39-.26c.14-.09.28-.18.43-.26l.33-.17,1.8-.62a2.31,2.31,0,0,0,.83-.59q.5-.49,1-1.09l1-1.19c.33-.39.57-.68.71-.87a.47.47,0,0,0,.14-.28,3,3,0,0,0,.07-.36,1.51,1.51,0,0,1,.18-.27.68.68,0,0,0,.14-.22,2.77,2.77,0,0,0,.3-.25l.48-.41q.26-.21.47-.41l.25-.25a.45.45,0,0,0,.11-.19l.14-.36.14-.37a1.69,1.69,0,0,0,.08-.23,9.5,9.5,0,0,1,1-1.68q.64-.85,1.31-1.69t1.28-1.72a11.56,11.56,0,0,0,1-1.77c1.43-1.7,2.91-3.43,4.41-5.19A10.59,10.59,0,0,0,279,44.33a14.41,14.41,0,0,1,1.47-2.44c.69-.75,1.45-1.5,2.28-2.25a30.13,30.13,0,0,0,2.38-2.42,7.16,7.16,0,0,0,.77-1.36,4.28,4.28,0,0,1,1-1.37c.16-.15.53-.44,1.11-.87l1.83-1.36q1-.7,1.84-1.26a3.77,3.77,0,0,1,1.2-.6c.42,0,.67.05.75.31a.86.86,0,0,1,.25.34.7.7,0,0,1,.1.3,3.63,3.63,0,0,0,.19,1,4.46,4.46,0,0,1,.21,1.08l-.21.64a1.6,1.6,0,0,0,0,.83q.11.42.18.69.13,1,.19,1.87a14.63,14.63,0,0,1,0,1.83,2.14,2.14,0,0,0,.24,1,1.43,1.43,0,0,1,.09,1l-.15.46a3.83,3.83,0,0,1,.87.71,2.46,2.46,0,0,1,.41.69c.09.24.18.5.27.77a4.25,4.25,0,0,0,.5,1,4,4,0,0,1,.42,1,7.83,7.83,0,0,1,.18,1q.06.49.14,1a4,4,0,0,0,.37,1.16,1.59,1.59,0,0,0,.21.45.9.9,0,0,1,.17.43q-.07.53-.14,1.06s0,.12.14.24l.34.4a5.45,5.45,0,0,1,.34.43.57.57,0,0,1,.14.29,1.09,1.09,0,0,0,0,.15c0,.08,0,.18,0,.28a1.56,1.56,0,0,0,0,.29c0,.09,0,.14.07.13l1.17.7a.66.66,0,0,1,.37.36,2.21,2.21,0,0,1,.1.48c0,.18,0,.35.05.53a.88.88,0,0,0,.24.5,12.13,12.13,0,0,1,.87,1.55,6.92,6.92,0,0,0,1,1.58,6.43,6.43,0,0,1,.67,1.22,3.31,3.31,0,0,1,.27,1.27q0,.17,0,.34a7.42,7.42,0,0,0,1.36,1.1,7.57,7.57,0,0,1,1.23.94,4.17,4.17,0,0,0,.91,1,5.58,5.58,0,0,0,.93.56,5.14,5.14,0,0,0,.88.32l.85.24a11.49,11.49,0,0,0,2.16.46c.75.09,1.69.17,2.84.24l1.34.15a1.09,1.09,0,0,1,.77.66,2.58,2.58,0,0,1,.14.77c0,.41-.26.72-.78.92a4.74,4.74,0,0,1-1.58.33l-4,0-1,0a2.46,2.46,0,0,0-.63-.17,7.52,7.52,0,0,0-.81-.08h-.76a2,2,0,0,1-.44,0l-5.42.15a1.46,1.46,0,0,0-.69-.33,6.31,6.31,0,0,0-.84,0,26,26,0,0,0-3.78.39,26.92,26.92,0,0,1-4.1.38l-1,0q-.69,0-1.32,0a3.57,3.57,0,0,1-1.13-.2c-.15-.05-.25-.21-.29-.46s0-.29,0-.44a.44.44,0,0,0,.05-.25l0-.16q0-.19.23-.25a10.64,10.64,0,0,1,1.74-.37q1-.13,1.9-.29a7,7,0,0,0,1.53-.43q.62-.27.59-.76v-.06q-.09-.63-.23-1.44a9.72,9.72,0,0,1-.15-1.61.85.85,0,0,0-.29-.57,1.08,1.08,0,0,1-.33-.54q0-.84,0-1.67a4.86,4.86,0,0,0-.5-1.11,9.53,9.53,0,0,0-1-1.49,8.42,8.42,0,0,0-1.33-1.27,2.2,2.2,0,0,0-1.48-.5,10.11,10.11,0,0,0-2.32.42,10.08,10.08,0,0,1-2.38.41,6.46,6.46,0,0,1-1.87-.16,7.25,7.25,0,0,0-2-.15l-2.62.12q-.85,0-1.73.14a6.31,6.31,0,0,0-1.66.42,11.76,11.76,0,0,0-2.51,1.34,5.68,5.68,0,0,0-1.8,2q-.25.91-.44,1.81a1.2,1.2,0,0,1-.09.26c-.06.14-.12.29-.18.44s-.12.3-.17.43a.9.9,0,0,0-.08.25.45.45,0,0,1,0,.16.58.58,0,0,0,0,.21.82.82,0,0,0,.25.67,7.46,7.46,0,0,1,.63.61l.59.62a5.74,5.74,0,0,0,.77.67,5.68,5.68,0,0,0,1.58.48l2,.37a9,9,0,0,1,1.7.51,1.21,1.21,0,0,1,.83.87l0,.19a1.35,1.35,0,0,1-.9,1.38,7.16,7.16,0,0,1-2.43.35L271,70.06h-1.43l-1.46,0q-.74,0-1.41.08a11.62,11.62,0,0,0-1.17.14,2.48,2.48,0,0,0-.73.22l-1.91,0-1.67,0-1.21,0h-.55a7.22,7.22,0,0,1-1.13-.11,7.83,7.83,0,0,1-1.25-.32,5.08,5.08,0,0,1-1-.48A1.08,1.08,0,0,1,255.55,69.11Zm21.72-17.81-.25.57a4.14,4.14,0,0,0-.19.52c-.14.49-.06.81.24,1a3.28,3.28,0,0,0,1.52.17.43.43,0,0,0,.21-.06l.1-.08.55-.08.68-.12.68,0a3.43,3.43,0,0,0,.53,0l6.43-.38q2.83-.17,3.15-1.87a1,1,0,0,0-.15-.61c-.13-.24-.29-.51-.47-.79a9.73,9.73,0,0,1-.51-.89,2.68,2.68,0,0,1-.28-.92.28.28,0,0,0-.12-.31q-.71-.89-1.35-1.77a.29.29,0,0,0-.06-.26.79.79,0,0,1-.14-.26q0-.28,0-.56c0-.38,0-.83,0-1.37a9.17,9.17,0,0,0-.15-1.53,3.8,3.8,0,0,0-.41-1.21.79.79,0,0,0-.82-.44c-.22,0-.58.29-1.08.81s-1.09,1.16-1.75,1.93-1.36,1.61-2.08,2.52-1.38,1.77-2,2.58-1.1,1.52-1.52,2.15A6.52,6.52,0,0,0,277.27,51.31Z"/></g></g></svg>