<svg xmlns="http://www.w3.org/2000/svg" xmlns:xlink="http://www.w3.org/1999/xlink" viewBox="0 0 443.3 126.35"><defs><style>.cls-1,.cls-3{fill:#342a2b;}.cls-2{clip-path:url(#clip-path);}.cls-3{font-size:83.8px;font-family:IM_FELL_English_SC, IM FELL English SC;}.cls-4{letter-spacing:-0.01em;}.cls-5{letter-spacing:-0.01em;}</style><clipPath id="clip-path"><path class="cls-1" d="M118.26,53.19l-3.82-1.13-3.65,1.32-3.65-.78-3.65-.28-3.65,0-3.65,1.1-3.65.19-3.65-1.7-3.65.17-3.65.48L77.9,54.12l-3.65-.66-3.65-.87-3.66,0-3.65-.38-3.65.68L56,53.36l-3.65-.8-3.65.08L45,52.42l-3.65.14-3.66-.07L34,53.39l-3.66-.79-3.66,1.19-3.66-1.72-3.66,0-3.66,1.83-3.66-.49-3.73-.35.52-3.73.19-3.67L7.49,42l.63-4,4-.4,3.65.6,3.65.29L23,38.7l3.65-.31,3.65.8L34,38.63l3.65,0,3.65.36L45,37.68l3.65.34,3.65,1.37,3.65-1.73,3.66.41,3.65.12L66.9,39l3.65.3,3.65-.9,3.65.48,3.66-.45,3.65.33,3.66,0,3.66.42,3.66-1.42,3.66,0,3.66-.49,3.66,0,3.66,1.59,3.66-.09,3.31-.13.95,3.31-1.08,3.67.66,3.67Zm-55-42.47-3.66.54L57,14.07,53.41,15,50.06,16.4l-3.21,1.66-2.72,2.62L41,22.49l-4,.12L33.84,24.4l-3,2.07-2.53,3-3.52,1.05-3.62.86L17.94,33l-3.4,1.3-2.93,2.25L8.76,38.26l3.33.54,3.65-.08,3.65.23L23,38.81l3.65.07L30.35,38l3.65.79,3.65-1.19,3.65,1.72,3.65,0,3.65-1.83,3.65.49,3.65.32,3.66.55,3.65.19L66.9,37.4l3.65.51,3.65-.28,3.65.6,3.66.29,3.65.18,3.66-.31,3.66.8,3.66-.56,3.66,0,3.66.36,3.66-1.27,3.66.34,3.66,1.37,3-1.22L114.75,37l-3.17-1.74-2.85-2.38-3.09-1.9L102,30.09,99,28l-3.43-1.24-3.07-1.93-3.24-1.61-3-2-3.87-.38-3.2-1.68L75.72,18,72.5,16.31,70,13.26,66.7,11.69ZM24.74,53.19l-3.28-1.13L18,53.38l-3.46-.78-4-.06-.17,4.06,1.1,3.57.19,3.57L10,67.31l.17,3.57.48,3.57L12.18,78l-.66,3.57-.87,3.57,0,3.57-.38,3.58L11,96l3.54-.42,3.45.8,3.46-.08,3.89,0,0-4,.07-3.57-.91-3.57.79-3.57L24.14,78l1.72-3.57,0-3.57L24,67.33l.49-3.57.32-3.57.55-3.59Zm22,0-4-1.15-4.19,1.32-4.46-.68-.43,3.89,0,3.57,1.1,3.57L35,67.31l-1.7,3.57.17,3.57L33.91,78l1.54,3.57-.66,3.57-.87,3.57,0,3.58-.1,4.18,4.7-.49,4.19-.45,4.48.69.08-3.92.23-3.57-.14-3.57.07-3.57L46.54,78l.79-3.57L46.14,70.9l1.72-3.57,0-3.57L46,60.18l.49-3.57Zm20.5,0-3.09-1.13-3.27,1.32-3.59-.64-.39,3.86,0,3.57L58,63.73l.19,3.57-1.7,3.57.17,3.57L57.18,78l1.54,3.57-.66,3.57-.87,3.57,0,3.58L57,96.43,60.89,96l3.27-.45,3.61.65,0-3.88L68,88.76l-.14-3.57L68,81.62,67.07,78l.79-3.57L66.66,70.9l1.72-3.57,0-3.57-1.83-3.57L67,56.61Zm50.67,37.64-3.49-1.12L110.79,91l-3.65-.77L103.48,90l-3.65,0-3.65,1.09-3.65.19-3.65-1.69-3.65.17-3.65.47L77.9,91.74l-3.65-.65-3.65-.87-3.66,0-3.65-.38-3.65.67L56,91l-3.65-.79-3.65.08L45,90.06l-3.65.14-3.66-.07L34,91l-3.66-.78-3.66,1.18-3.66-1.7-3.66,0-3.66,1.82-3.66-.49-3.6-.35L8,94.33,7.79,98l1.57,3.67L8.74,105l3.35-.4,3.65.59,3.65.29,3.65.18,3.65-.3,3.65.79,3.65-.56,3.65,0,3.65.36L45,104.69l3.65.33,3.65,1.36,3.65-1.71,3.66.4,3.65.12,3.65.83,3.65.3,3.65-.89,3.65.47,3.66-.44,3.65.33,3.66,0,3.66.41,3.66-1.4,3.66,0,3.66-.48,3.66,0,3.66,1.57,3.66-.09,4-.13-.94-4L118.58,98l-.65-3.67Zm-2.55-37.63-3.28-1.12-3.45,1.3-3.46-.77-4-.07-.18,4L102.14,60l.19,3.49L100.64,67l.17,3.5.47,3.5,1.53,3.49-.65,3.5-.87,3.5,0,3.5-.38,3.5.7,3.58,3.53-.41,3.45.79,3.46-.08,3.89,0,0-3.91.07-3.49-.9-3.49L116,81l-1.18-3.5,1.7-3.5,0-3.49L114.65,67l.49-3.5.32-3.5.55-3.51Zm-24,0-4-1.13-4.19,1.3-4.47-.67-.42,4,0,3.69,1.09,3.69.19,3.69-1.69,3.69L78,75.15l.47,3.69L80,82.53l-.65,3.69-.87,3.69,0,3.7-.11,4.28,4.7-.47L87.3,97l4.49.68.08-4,.22-3.69L92,86.24,92,82.55l-.9-3.69.78-3.69-1.18-3.69,1.7-3.69,0-3.69-1.82-3.69.49-3.69Z"/></clipPath></defs><title>Eszköz 70</title><g id="Réteg_2" data-name="Réteg 2"><g id="Réteg_1" data-name="Réteg 1"><path class="cls-1" d="M118.26,53.19l-3.82-1.13-3.65,1.32-3.65-.78-3.65-.28-3.65,0-3.65,1.1-3.65.19-3.65-1.7-3.65.17-3.65.48L77.9,54.12l-3.65-.66-3.65-.87-3.66,0-3.65-.38-3.65.68L56,53.36l-3.65-.8-3.65.08L45,52.42l-3.65.14-3.66-.07L34,53.39l-3.66-.79-3.66,1.19-3.66-1.72-3.66,0-3.66,1.83-3.66-.49-3.73-.35.52-3.73.19-3.67L7.49,42l.63-4,4-.4,3.65.6,3.65.29L23,38.7l3.65-.31,3.65.8L34,38.63l3.65,0,3.65.36L45,37.68l3.65.34,3.65,1.37,3.65-1.73,3.66.41,3.65.12L66.9,39l3.65.3,3.65-.9,3.65.48,3.66-.45,3.65.33,3.66,0,3.66.42,3.66-1.42,3.66,0,3.66-.49,3.66,0,3.66,1.59,3.66-.09,3.31-.13.95,3.31-1.08,3.67.66,3.67Zm-55-42.47-3.66.54L57,14.07,53.41,15,50.06,16.4l-3.21,1.66-2.72,2.62L41,22.49l-4,.12L33.84,24.4l-3,2.07-2.53,3-3.52,1.05-3.62.86L17.94,33l-3.4,1.3-2.93,2.25L8.76,38.26l3.33.54,3.65-.08,3.65.23L23,38.81l3.65.07L30.35,38l3.65.79,3.65-1.19,3.65,1.72,3.65,0,3.65-1.83,3.65.49,3.65.32,3.66.55,3.65.19L66.9,37.4l3.65.51,3.65-.28,3.65.6,3.66.29,3.65.18,3.66-.31,3.66.8,3.66-.56,3.66,0,3.66.36,3.66-1.27,3.66.34,3.66,1.37,3-1.22L114.75,37l-3.17-1.74-2.85-2.38-3.09-1.9L102,30.09,99,28l-3.43-1.24-3.07-1.93-3.24-1.61-3-2-3.87-.38-3.2-1.68L75.72,18,72.5,16.31,70,13.26,66.7,11.69ZM24.74,53.19l-3.28-1.13L18,53.38l-3.46-.78-4-.06-.17,4.06,1.1,3.57.19,3.57L10,67.31l.17,3.57.48,3.57L12.18,78l-.66,3.57-.87,3.57,0,3.57-.38,3.58L11,96l3.54-.42,3.45.8,3.46-.08,3.89,0,0-4,.07-3.57-.91-3.57.79-3.57L24.14,78l1.72-3.57,0-3.57L24,67.33l.49-3.57.32-3.57.55-3.59Zm22,0-4-1.15-4.19,1.32-4.46-.68-.43,3.89,0,3.57,1.1,3.57L35,67.31l-1.7,3.57.17,3.57L33.91,78l1.54,3.57-.66,3.57-.87,3.57,0,3.58-.1,4.18,4.7-.49,4.19-.45,4.48.69.08-3.92.23-3.57-.14-3.57.07-3.57L46.54,78l.79-3.57L46.14,70.9l1.72-3.57,0-3.57L46,60.18l.49-3.57Zm20.5,0-3.09-1.13-3.27,1.32-3.59-.64-.39,3.86,0,3.57L58,63.73l.19,3.57-1.7,3.57.17,3.57L57.18,78l1.54,3.57-.66,3.57-.87,3.57,0,3.58L57,96.43,60.89,96l3.27-.45,3.61.65,0-3.88L68,88.76l-.14-3.57L68,81.62,67.07,78l.79-3.57L66.66,70.9l1.72-3.57,0-3.57-1.83-3.57L67,56.61Zm50.67,37.64-3.49-1.12L110.79,91l-3.65-.77L103.48,90l-3.65,0-3.65,1.09-3.65.19-3.65-1.69-3.65.17-3.65.47L77.9,91.74l-3.65-.65-3.65-.87-3.66,0-3.65-.38-3.65.67L56,91l-3.65-.79-3.65.08L45,90.06l-3.65.14-3.66-.07L34,91l-3.66-.78-3.66,1.18-3.66-1.7-3.66,0-3.66,1.82-3.66-.49-3.6-.35L8,94.33,7.79,98l1.57,3.67L8.74,105l3.35-.4,3.65.59,3.65.29,3.65.18,3.65-.3,3.65.79,3.65-.56,3.65,0,3.65.36L45,104.69l3.65.33,3.65,1.36,3.65-1.71,3.66.4,3.65.12,3.65.83,3.65.3,3.65-.89,3.65.47,3.66-.44,3.65.33,3.66,0,3.66.41,3.66-1.4,3.66,0,3.66-.48,3.66,0,3.66,1.57,3.66-.09,4-.13-.94-4L118.58,98l-.65-3.67Zm-2.55-37.63-3.28-1.12-3.45,1.3-3.46-.77-4-.07-.18,4L102.14,60l.19,3.49L100.64,67l.17,3.5.47,3.5,1.53,3.49-.65,3.5-.87,3.5,0,3.5-.38,3.5.7,3.58,3.53-.41,3.45.79,3.46-.08,3.89,0,0-3.91.07-3.49-.9-3.49L116,81l-1.18-3.5,1.7-3.5,0-3.49L114.65,67l.49-3.5.32-3.5.55-3.51Zm-24,0-4-1.13-4.19,1.3-4.47-.67-.42,4,0,3.69,1.09,3.69.19,3.69-1.69,3.69L78,75.15l.47,3.69L80,82.53l-.65,3.69-.87,3.69,0,3.7-.11,4.28,4.7-.47L87.3,97l4.49.68.08-4,.22-3.69L92,86.24,92,82.55l-.9-3.69.78-3.69-1.18-3.69,1.7-3.69,0-3.69-1.82-3.69.49-3.69Z"/><g class="cls-2"><polygon class="cls-1" points="113.25 124.81 109.69 125.55 106.12 126.34 102.55 124.3 98.98 124.86 95.41 126.34 91.84 125.85 88.27 126.35 84.7 125.24 81.13 125.44 77.56 125.83 73.99 126.2 70.42 125.11 66.86 124.78 63.29 125.79 59.72 126.06 56.15 125.9 52.58 126 49.01 125.33 45.44 125.2 41.87 126.35 38.3 124.78 34.72 124.24 31.15 125 27.58 125.4 24.01 125.7 20.43 124.21 16.86 125.57 13.28 125.59 9.21 125.72 6.23 122.9 3.19 120.52 1.27 117.1 1.13 113.2 0.44 109.63 0.41 106.06 0.62 102.49 1.5 98.92 1.56 95.36 0.55 91.79 2.32 88.22 0.04 84.65 2.35 81.08 1.9 77.51 0.05 73.94 0.98 70.37 1.47 66.8 0.78 63.23 0.13 59.66 0.4 56.09 1.75 52.53 2.2 48.95 0.55 45.39 0.94 41.81 0.59 38.24 1.34 34.67 2.1 31.1 0.57 27.52 0.77 23.95 0 20.38 0.81 16.8 1.35 13.22 1.5 9.39 4.12 6.57 5.81 2.94 9.6 1.9 13.28 0.98 16.84 1.42 20.41 0.59 23.98 0.95 27.55 0.23 31.12 0.85 34.69 1.93 38.26 1.42 41.83 1.9 45.4 1.96 48.97 1.93 52.53 2.02 56.11 0.52 59.67 1.96 63.24 1.54 66.81 1.22 70.38 1.11 73.95 1.05 77.52 2.03 81.09 0.72 84.66 0.32 88.23 0.19 91.8 0.14 95.38 0.12 98.95 2.08 102.52 0.84 106.09 1.37 109.67 1.24 113.25 0 117.19 1.1 120.72 2.94 122.12 6.78 124.37 9.61 125.99 13.22 125.3 16.79 125.72 20.36 125.1 23.93 126.28 27.49 125.29 31.06 125.74 34.63 125.07 38.2 124.98 41.77 125.77 45.34 126.17 48.91 124.39 52.48 126.57 56.05 124.3 59.62 126.36 63.19 125.94 66.75 124.88 70.32 124.79 73.89 124.91 77.46 124.38 81.03 126.36 84.6 125.85 88.18 126.4 91.75 125.35 95.32 124.67 98.89 126.5 102.47 124.26 106.04 126.46 109.62 125 113.2 124.95 117 124.09 121.07 119.68 122.05 116.65 123.66 113.25 124.81"/></g><text class="cls-3" transform="translate(131.41 96.5)"><tspan class="cls-4">A</tspan><tspan x="55.32" y="0">G</tspan><tspan class="cls-5" x="122.02" y="0">O</tspan><tspan x="190.4" y="0">RA</tspan></text></g></g></svg>